<?xml version="1.0" encoding="UTF-8"?> <svg xmlns="http://www.w3.org/2000/svg" id="Logo_incl._Clearspace" data-name="Logo incl. Clearspace" width="155.1" height="60" viewBox="0 0 155.1 60"><defs><style>.cls-1{fill:none;}.cls-2{fill:#e32e34;}</style></defs><rect id="Rectangle_5" data-name="Rectangle 5" class="cls-1" width="155" height="60"/><path class="cls-2" d="M41.7,32.4c.9-2,2.4-5.8,2.4-5.8h5.2S47.4,31.1,47,32s0,1.2.7,1.2h1.9c.9,0,1.4-.6,2-2,.3-.6,2-4.6,2-4.6h3.6s-1.4,3.3-2.4,5.6-2.5,3.5-5,3.5H43.7c-1.7.1-2.8-1.4-2-3.3"/><path class="cls-2" d="M68.9,26.6c1.8,0,3.3,1.3,2.3,3.6-.5,1.3-2.3,5.5-2.3,5.5H65.4s1.7-4,2.4-5.6c.4-1,.1-1.3-.6-1.3H65.4a2,2,0,0,0-1.9,1.1c-.4,1-2.5,5.9-2.5,5.9H55.4s1.9-4.6,2.5-6.1a4.8,4.8,0,0,1,4.5-3.1Z"/><path class="cls-2" d="M85.1,30.5c.5.9,3.3,5.3,3.3,5.3H83.8s-2.9-4.8-3.4-5.7c-.4-.7,0-1.5,1-1.5h1.9a1.79,1.79,0,0,0,1.9-1.2c.1-.6-.2-1-.7-1H80.7l-4,9.5H70.9l4.8-11.5H87.6a2.06,2.06,0,0,1,2.1,2.8,4.57,4.57,0,0,1-2.1,2.6,7.17,7.17,0,0,1-2.5.7"/><path class="cls-2" d="M97.5,31.6H94.2c-.6,0-1.4.1-1.6.5-.4.8.2,1.1,1,1.1h1.2a2.7,2.7,0,0,0,2.7-1.6m-4.8-3.9a1.85,1.85,0,0,1,1.7-1.1h6.1A2.55,2.55,0,0,1,103,28c.4.7.2,1.6-.5,3.4-.6,1.4-1.9,4.4-1.9,4.4H92.9c-2.9,0-4.5-1.5-3.6-3.7.6-1.6,2.6-2.1,4-2.1h4.9s.9-1.5-.5-1.5H92.5Z"/><path class="cls-2" d="M38.5,29.8a2.6,2.6,0,0,1,.9,3.8,4.32,4.32,0,0,1-3.8,2.1H23.9L25,33.2h8.6s-4.1-2.6-4.8-3.1c-1-.7-2.2-2.2-1.1-3.8a4.37,4.37,0,0,1,4.2-2h11l-1.1,2.4H33.9c.4.2,3.9,2.7,4.6,3.1"/><path class="cls-2" d="M106.3,35.8a2.41,2.41,0,0,1-1.8-.7,2.66,2.66,0,0,1-.8-2.4,5.82,5.82,0,0,1,1.7-3.8,6.46,6.46,0,0,1,5-2.2h8.1l-.8,1.8h-5.4a2.2,2.2,0,0,0-.8.1c-.5.1-.7.4-1,.8a20.62,20.62,0,0,0-1.2,2.6c-.2.9,0,1.3.9,1.3h5.5l-1.1,2.5h-8.3"/><path class="cls-2" d="M128.2,30h-4.5c.7-1.3,1.1-1.5,1.8-1.5h1.9c.5,0,.8,0,1,.4s0,.7-.2,1.1m2.6-1.9c-.3-.7-1.5-1.5-3.3-1.5H124a6.52,6.52,0,0,0-4.8,2,5.82,5.82,0,0,0-1.9,3.9c-.1,1.2.4,3.2,2.6,3.2h8.4l1.1-2.5H124c-1.2,0-1.5-.3-1-1.7h7.4a4,4,0,0,0,.4-3.4"/></svg>